# Blender 4.5.3 LTS
# www.blender.org
mtllib 2к 3D.mtl
o Plane
v -0.446636 0.000000 0.054190
v 0.163399 0.000000 0.054190
v -0.446636 0.000000 -0.555845
v 0.163399 0.000000 -0.555845
v -0.446636 0.000000 -0.474997
v 0.163399 0.000000 -0.474997
v -0.332713 0.000000 0.054190
v -0.332713 0.000000 -0.555845
v -0.332713 0.192190 -0.555845
v 0.080714 0.000000 0.054190
v 0.080714 0.000000 -0.555845
v 0.080714 0.192190 -0.555845
v -0.332713 0.000000 -0.728125
v 0.080714 0.000000 -0.728125
v 1.743241 0.000000 0.054190
v 1.743241 0.000000 -0.474997
v 2.205097 0.000000 0.054190
v 2.205097 0.000000 -0.474997
v 1.743241 0.000000 -0.623451
v 2.205097 0.000000 -0.623451
v 1.743241 0.000000 0.202644
v 2.205097 0.000000 0.202644
v -2.027394 0.000000 0.054190
v -2.027394 0.000000 -0.474997
v -2.485584 0.000000 0.054190
v -2.485584 0.000000 -0.474997
v -2.027394 0.000000 -0.629254
v -2.485584 0.000000 -0.629254
v -2.027394 0.000000 0.199283
v -2.485584 0.000000 0.199283
v -0.446636 0.619639 -0.474997
v -0.446636 0.619639 0.054190
v 0.080714 0.619639 0.054190
v 0.163399 0.619639 0.054190
v 0.163399 0.619639 -0.474997
v 0.163399 0.619639 -0.555845
v -0.332713 0.619639 -0.555845
v -0.446636 0.619639 -0.555845
v -0.332713 0.619639 -0.474997
v -0.332713 0.619639 0.054190
v 0.080714 0.619639 -0.555845
v 0.080714 0.619639 -0.474997
v 1.743241 0.619639 0.054190
v 1.743241 0.619639 -0.474997
v 2.205097 0.619639 0.054190
v 2.205097 0.619639 -0.474997
v 2.205097 0.619639 -0.623451
v 1.743241 0.619639 -0.623451
v 1.743241 0.619639 0.202644
v 2.205097 0.619639 0.202644
v -2.027394 0.619639 -0.474997
v -2.027394 0.619639 0.054190
v -2.485584 0.619639 -0.474997
v -2.485584 0.619639 0.054190
v -2.027394 0.619639 -0.629254
v -2.485584 0.619639 -0.629254
v -2.485584 0.619639 0.199283
v -2.027394 0.619639 0.199283
v 0.080714 0.192190 -0.728125
v -0.332713 0.192190 -0.728125
vn -1.0000 -0.0000 -0.0000
vn -0.0000 -0.0000 1.0000
vn -0.0000 -0.0000 -1.0000
vn 1.0000 -0.0000 -0.0000
vn -0.0000 1.0000 -0.0000
vt 0.000000 0.000000
vt 0.864458 1.000000
vt 0.186747 1.000000
vt 0.864458 0.867470
vt 1.000000 0.867470
vt 1.000000 1.000000
vt 0.864458 0.000000
vt 1.000000 0.000000
vt 0.186747 0.000000
vt 0.186747 0.867470
vt 0.000000 0.867470
vt 0.000000 1.000000
s 0
f 15/1/1 21/1/1 49/1/1 43/1/1
f 10/1/2 2/1/2 34/1/2 33/1/2
f 27/1/3 28/1/3 56/1/3 55/1/3
f 17/1/4 18/1/4 46/1/4 45/1/4
f 11/2/3 8/3/3 37/3/3 41/2/3
f 22/1/4 17/1/4 45/1/4 50/1/4
f 8/3/2 11/2/2 12/2/2 9/3/2
f 2/1/2 15/1/2 43/1/2 34/1/2
f 1/1/2 7/1/2 40/1/2 32/1/2
f 21/1/2 22/1/2 50/1/2 49/1/2
f 16/1/3 6/1/3 35/1/3 44/1/3
f 25/1/1 30/1/1 57/1/1 54/1/1
f 18/1/4 20/1/4 47/1/4 46/1/4
f 4/1/3 11/1/3 41/1/3 36/1/3
f 26/1/1 25/1/1 54/1/1 53/1/1
f 42/4/5 35/5/5 36/6/5 41/2/5
f 33/7/5 34/8/5 35/5/5 42/4/5
f 32/1/5 40/9/5 39/10/5 31/11/5
f 31/11/5 39/10/5 37/3/5 38/12/5
f 40/9/5 33/7/5 42/4/5 39/10/5
f 39/10/5 42/4/5 41/2/5 37/3/5
f 35/5/5 34/8/5 43/8/5 44/5/5
f 44/5/5 43/8/5 45/8/5 46/5/5
f 44/5/5 46/5/5 47/5/5 48/5/5
f 45/8/5 43/8/5 49/8/5 50/8/5
f 32/1/5 31/11/5 51/11/5 52/1/5
f 52/1/5 51/11/5 53/11/5 54/1/5
f 53/11/5 51/11/5 55/11/5 56/11/5
f 52/1/5 54/1/5 57/1/5 58/1/5
f 28/1/1 26/1/1 53/1/1 56/1/1
f 6/1/4 4/1/4 36/1/4 35/1/4
f 24/1/4 27/1/4 55/1/4 51/1/4
f 8/1/3 3/1/3 38/1/3 37/1/3
f 23/1/2 1/1/2 32/1/2 52/1/2
f 20/1/3 19/1/3 48/1/3 47/1/3
f 30/1/2 29/1/2 58/1/2 57/1/2
f 3/1/1 5/1/1 31/1/1 38/1/1
f 5/1/3 24/1/3 51/1/3 31/1/3
f 7/1/2 10/1/2 33/1/2 40/1/2
f 19/1/1 16/1/1 44/1/1 48/1/1
f 29/1/4 23/1/4 52/1/4 58/1/4
f 9/3/5 12/2/5 59/2/5 60/3/5
f 11/1/4 14/1/4 59/1/4 12/1/4
f 14/1/3 13/1/3 60/1/3 59/1/3
f 13/1/1 8/1/1 9/1/1 60/1/1
