# Blender 4.5.3 LTS
# www.blender.org
mtllib 4к 3D.mtl
o Plane
v 1.341111 0.000000 1.477279
v 2.407622 0.000000 1.477279
v 1.341111 0.000000 0.410768
v 2.407622 0.000000 0.410768
v 1.062413 0.000000 1.477279
v 1.062413 0.000000 0.410768
v 0.058470 0.000000 1.477279
v 0.058470 0.000000 0.410768
v -2.304123 0.000000 1.477279
v -2.304123 0.000000 0.410768
v 1.062413 0.000000 -1.346925
v 0.058470 0.000000 -1.346925
v 0.626202 0.000000 1.477279
v 0.626202 0.000000 0.410768
v 0.626202 0.000000 -1.346925
v 1.417667 0.000000 1.477279
v 1.417667 0.000000 0.410768
v 1.341111 0.000000 1.518007
v 1.062413 0.000000 1.518007
v 0.626202 0.000000 1.518007
v 1.417667 0.000000 1.518007
v 0.676888 0.000000 1.477279
v 0.676888 0.000000 0.410768
v 0.676888 0.000000 -1.346925
v 0.676888 0.000000 1.518007
v 1.360250 0.000000 0.410768
v 1.360250 0.000000 1.477279
v 1.360250 0.000000 1.518007
v 0.626202 0.107330 0.410768
v 0.676888 0.107330 1.477279
v 0.058470 0.107330 1.477279
v 0.058470 0.107330 0.410768
v 1.062413 0.107330 1.477279
v 1.062413 0.107330 0.410768
v 1.360250 0.107330 0.410768
v 2.407622 0.107330 0.410768
v 1.387870 0.000000 1.518007
v 2.407622 0.107330 1.477279
v 1.417667 0.107330 1.477279
v 0.655406 0.000000 1.518007
v 1.341111 0.107330 1.477279
v 1.341111 0.107330 0.410768
v 1.587034 0.000000 1.505422
v 1.615574 0.000000 1.505422
v 1.587034 0.000000 1.476881
v 1.615574 0.000000 1.476881
v 1.782723 0.000000 1.505422
v 1.811264 0.000000 1.505422
v 1.782723 0.000000 1.476881
v 1.811264 0.000000 1.476881
v 1.970696 0.000000 1.505422
v 1.999237 0.000000 1.505422
v 1.970696 0.000000 1.476881
v 1.999237 0.000000 1.476881
v 2.168899 0.000000 1.505422
v 2.197440 0.000000 1.505422
v 2.168899 0.000000 1.476881
v 2.197440 0.000000 1.476881
v 2.357724 0.000000 1.505422
v 2.386265 0.000000 1.505422
v 2.357724 0.000000 1.476881
v 2.386265 0.000000 1.476881
v 0.444596 0.000000 1.505422
v 0.473136 0.000000 1.505422
v 0.444596 0.000000 1.476881
v 0.473136 0.000000 1.476881
v 0.048002 0.000000 1.505422
v 0.076542 0.000000 1.505422
v 0.048002 0.000000 1.476881
v 0.076542 0.000000 1.476881
v 0.254303 0.000000 1.505422
v 0.282844 0.000000 1.505422
v 0.254303 0.000000 1.476881
v 0.282844 0.000000 1.476881
v 0.013050 0.000000 1.505422
v 0.041590 0.000000 1.505422
v 0.013050 0.000000 1.476881
v 0.041590 0.000000 1.476881
v -0.194530 0.000000 1.505422
v -0.165990 0.000000 1.505422
v -0.194530 0.000000 1.476881
v -0.165990 0.000000 1.476881
v -0.368437 0.000000 1.505422
v -0.339897 0.000000 1.505422
v -0.368437 0.000000 1.476881
v -0.339897 0.000000 1.476881
v -0.558968 0.000000 1.505422
v -0.530427 0.000000 1.505422
v -0.558968 0.000000 1.476881
v -0.530427 0.000000 1.476881
v -0.752056 0.000000 1.505422
v -0.723515 0.000000 1.505422
v -0.752056 0.000000 1.476881
v -0.723515 0.000000 1.476881
v -0.951964 0.000000 1.505422
v -0.923423 0.000000 1.505422
v -0.951964 0.000000 1.476881
v -0.923423 0.000000 1.476881
v -1.134627 0.000000 1.505422
v -1.106087 0.000000 1.505422
v -1.134627 0.000000 1.476881
v -1.106087 0.000000 1.476881
v -1.526770 0.000000 1.505422
v -1.498230 0.000000 1.505422
v -1.526770 0.000000 1.476881
v -1.498230 0.000000 1.476881
v -1.718935 0.000000 1.505422
v -1.690394 0.000000 1.505422
v -1.718935 0.000000 1.476881
v -1.690394 0.000000 1.476881
v -1.904350 0.000000 1.505422
v -1.875810 0.000000 1.505422
v -1.904350 0.000000 1.476881
v -1.875810 0.000000 1.476881
v -2.095805 0.000000 1.505422
v -2.067264 0.000000 1.505422
v -2.095805 0.000000 1.476881
v -2.067264 0.000000 1.476881
v -2.296494 0.000000 1.505422
v -2.267953 0.000000 1.505422
v -2.296494 0.000000 1.476881
v -2.267953 0.000000 1.476881
v -2.304123 0.107330 0.410768
v -2.304123 0.107330 1.477279
v 0.626202 0.107330 -1.346925
v 0.058470 0.107330 -1.346925
v 1.062413 0.107330 -1.346925
v 0.626202 0.107330 1.477279
v 0.676888 0.107330 0.410768
v 0.676888 0.107330 -1.346925
v 1.360250 0.107330 1.477279
v 1.417667 0.107330 0.410768
v 1.062413 0.107330 1.518007
v 1.341111 0.107330 1.518007
v 0.676888 0.107330 1.518007
v 1.360250 0.107330 1.518007
v 1.417667 0.107330 1.518007
v 0.626202 0.107330 1.518007
v 1.387870 0.107330 1.518007
v 0.655406 0.107330 1.518007
v 1.587034 0.107330 1.476881
v 1.587034 0.107330 1.505422
v 1.615574 0.107330 1.505422
v 1.615574 0.107330 1.476881
v 1.782723 0.107330 1.505422
v 1.782723 0.107330 1.476881
v 1.811264 0.107330 1.505422
v 1.811264 0.107330 1.476881
v 1.970696 0.107330 1.505422
v 1.970696 0.107330 1.476881
v 1.999237 0.107330 1.505422
v 1.999237 0.107330 1.476881
v 2.168899 0.107330 1.505422
v 2.168899 0.107330 1.476881
v 2.197440 0.107330 1.505422
v 2.197440 0.107330 1.476881
v 2.357724 0.107330 1.505422
v 2.357724 0.107330 1.476881
v 2.386265 0.107330 1.505422
v 2.386265 0.107330 1.476881
v 0.444596 0.107330 1.505422
v 0.444596 0.107330 1.476881
v 0.473136 0.107330 1.505422
v 0.473136 0.107330 1.476881
v 0.048002 0.107330 1.505422
v 0.048002 0.107330 1.476881
v 0.076542 0.107330 1.505422
v 0.076542 0.107330 1.476881
v 0.254303 0.107330 1.505422
v 0.254303 0.107330 1.476881
v 0.282844 0.107330 1.505422
v 0.282844 0.107330 1.476881
v 0.013050 0.107330 1.505422
v 0.013050 0.107330 1.476881
v 0.041590 0.107330 1.505422
v 0.041590 0.107330 1.476881
v -0.194530 0.107330 1.505422
v -0.194530 0.107330 1.476881
v -0.165990 0.107330 1.505422
v -0.165990 0.107330 1.476881
v -0.368437 0.107330 1.505422
v -0.368437 0.107330 1.476881
v -0.339897 0.107330 1.505422
v -0.339897 0.107330 1.476881
v -0.558968 0.107330 1.505422
v -0.558968 0.107330 1.476881
v -0.530427 0.107330 1.505422
v -0.530427 0.107330 1.476881
v -0.752056 0.107330 1.505422
v -0.752056 0.107330 1.476881
v -0.723515 0.107330 1.505422
v -0.723515 0.107330 1.476881
v -0.951964 0.107330 1.505422
v -0.951964 0.107330 1.476881
v -0.923423 0.107330 1.505422
v -0.923423 0.107330 1.476881
v -1.134627 0.107330 1.505422
v -1.134627 0.107330 1.476881
v -1.106087 0.107330 1.505422
v -1.106087 0.107330 1.476881
v -1.526770 0.107330 1.505422
v -1.526770 0.107330 1.476881
v -1.498230 0.107330 1.505422
v -1.498230 0.107330 1.476881
v -1.718935 0.107330 1.505422
v -1.718935 0.107330 1.476881
v -1.690394 0.107330 1.505422
v -1.690394 0.107330 1.476881
v -1.904350 0.107330 1.505422
v -1.904350 0.107330 1.476881
v -1.875810 0.107330 1.505422
v -1.875810 0.107330 1.476881
v -2.095805 0.107330 1.505422
v -2.095805 0.107330 1.476881
v -2.067264 0.107330 1.505422
v -2.067264 0.107330 1.476881
v -2.296494 0.107330 1.505422
v -2.296494 0.107330 1.476881
v -2.267953 0.107330 1.505422
v -2.267953 0.107330 1.476881
v 0.676888 0.000000 1.622025
v 0.655406 0.000000 1.622025
v 0.676888 0.107330 1.622025
v 0.655406 0.107330 1.622025
v 1.383627 0.000000 1.518007
v 1.362144 0.000000 1.518007
v 1.383627 0.107330 1.518007
v 1.362144 0.107330 1.518007
v 1.383627 0.000000 1.622025
v 1.362144 0.000000 1.622025
v 1.383627 0.107330 1.622025
v 1.362144 0.107330 1.622025
v 1.341111 0.000000 1.786644
v 1.062413 0.000000 1.786644
v 0.676888 0.000000 1.786644
v 1.387610 0.000000 1.518007
v 1.387610 0.000000 1.786644
v 0.653442 0.000000 1.518007
v 0.653442 0.000000 1.786644
v 0.784677 0.000000 1.622025
v 0.784677 0.107330 1.622025
v 0.843712 0.000000 1.622025
v 0.843712 0.107330 1.622025
v 0.951501 0.000000 1.622025
v 0.951501 0.107330 1.622025
v 1.090154 0.000000 1.622025
v 1.090154 0.107330 1.622025
v 1.197943 0.000000 1.622025
v 1.197943 0.107330 1.622025
v 1.256978 0.000000 1.622025
v 1.256978 0.107330 1.622025
v 1.364767 0.000000 1.622025
v 1.364767 0.107330 1.622025
vn -0.0000 -1.0000 -0.0000
vn -0.0000 1.0000 -0.0000
vn -0.0000 -0.0000 1.0000
vn 1.0000 -0.0000 -0.0000
vn -0.0000 -0.0000 -1.0000
vn -1.0000 -0.0000 -0.0000
vt 0.071782 0.000000
vt 0.071782 1.000000
vt 1.000000 1.000000
vt 1.000000 0.000000
vt 0.000000 0.000000
vt 0.000000 1.000000
vt 0.017946 0.000000
vt 0.017946 1.000000
s 0
f 16/1/1 17/2/1 4/3/1 2/4/1
f 1/5/1 5/5/1 6/6/1 3/6/1
f 13/5/1 7/5/1 8/6/1 14/6/1
f 7/5/1 9/5/1 10/6/1 8/6/1
f 23/6/1 24/6/1 11/6/1 6/6/1
f 8/6/1 12/6/1 15/6/1 14/6/1
f 22/5/1 13/5/1 14/6/1 23/6/1
f 27/7/1 26/8/1 17/2/1 16/1/1
f 27/7/1 28/7/1 18/5/1 1/5/1
f 22/5/1 25/5/1 20/5/1 13/5/1
f 1/5/1 18/5/1 19/5/1 5/5/1
f 5/5/1 19/5/1 25/5/1 22/5/1
f 5/5/1 22/5/1 23/6/1 6/6/1
f 14/6/1 15/6/1 24/6/1 23/6/1
f 16/1/1 21/1/1 28/7/1 27/7/1
f 1/5/1 3/6/1 26/8/1 27/7/1
f 131/7/2 41/5/2 134/5/2 136/7/2
f 131/7/2 39/1/2 132/2/2 35/8/2
f 30/5/2 128/5/2 138/5/2 135/5/2
f 128/5/2 29/6/2 32/6/2 31/5/2
f 41/5/2 42/6/2 34/6/2 33/5/2
f 31/5/2 32/6/2 123/6/2 124/5/2
f 32/6/2 29/6/2 125/6/2 126/6/2
f 129/6/2 34/6/2 127/6/2 130/6/2
f 39/1/2 38/4/2 36/3/2 132/2/2
f 30/5/2 129/6/2 29/6/2 128/5/2
f 43/5/1 45/6/1 46/3/1 44/4/1
f 47/5/1 49/6/1 50/3/1 48/4/1
f 51/5/1 53/6/1 54/3/1 52/4/1
f 55/5/1 57/6/1 58/3/1 56/4/1
f 59/5/1 61/6/1 62/3/1 60/4/1
f 63/5/1 65/6/1 66/3/1 64/4/1
f 67/5/1 69/6/1 70/3/1 68/4/1
f 71/5/1 73/6/1 74/3/1 72/4/1
f 75/5/1 77/6/1 78/3/1 76/4/1
f 79/5/1 81/6/1 82/3/1 80/4/1
f 83/5/1 85/6/1 86/3/1 84/4/1
f 87/5/1 89/6/1 90/3/1 88/4/1
f 91/5/1 93/6/1 94/3/1 92/4/1
f 95/5/1 97/6/1 98/3/1 96/4/1
f 99/5/1 101/6/1 102/3/1 100/4/1
f 103/5/1 105/6/1 106/3/1 104/4/1
f 107/5/1 109/6/1 110/3/1 108/4/1
f 111/5/1 113/6/1 114/3/1 112/4/1
f 115/5/1 117/6/1 118/3/1 116/4/1
f 119/5/1 121/6/1 122/3/1 120/4/1
f 41/5/2 33/5/2 133/5/2 134/5/2
f 33/5/2 30/5/2 135/5/2 133/5/2
f 33/5/2 34/6/2 129/6/2 30/5/2
f 29/6/2 129/6/2 130/6/2 125/6/2
f 39/1/2 131/7/2 136/7/2 137/1/2
f 41/5/2 131/7/2 35/8/2 42/6/2
f 142/5/2 143/4/2 144/3/2 141/6/2
f 145/5/2 147/4/2 148/3/2 146/6/2
f 149/5/2 151/4/2 152/3/2 150/6/2
f 153/5/2 155/4/2 156/3/2 154/6/2
f 157/5/2 159/4/2 160/3/2 158/6/2
f 161/5/2 163/4/2 164/3/2 162/6/2
f 165/5/2 167/4/2 168/3/2 166/6/2
f 169/5/2 171/4/2 172/3/2 170/6/2
f 173/5/2 175/4/2 176/3/2 174/6/2
f 177/5/2 179/4/2 180/3/2 178/6/2
f 181/5/2 183/4/2 184/3/2 182/6/2
f 185/5/2 187/4/2 188/3/2 186/6/2
f 189/5/2 191/4/2 192/3/2 190/6/2
f 193/5/2 195/4/2 196/3/2 194/6/2
f 197/5/2 199/4/2 200/3/2 198/6/2
f 201/5/2 203/4/2 204/3/2 202/6/2
f 205/5/2 207/4/2 208/3/2 206/6/2
f 209/5/2 211/4/2 212/3/2 210/6/2
f 213/5/2 215/4/2 216/3/2 214/6/2
f 217/5/2 219/4/2 220/3/2 218/6/2
f 75/5/3 76/4/3 175/4/3 173/5/3
f 76/4/4 78/3/4 176/3/4 175/4/4
f 78/3/5 77/6/5 174/6/5 176/3/5
f 81/6/6 79/5/6 177/5/6 178/6/6
f 16/1/3 2/4/3 38/4/3 39/1/3
f 79/5/3 80/4/3 179/4/3 177/5/3
f 2/4/4 4/3/4 36/3/4 38/4/4
f 80/4/4 82/3/4 180/3/4 179/4/4
f 26/8/5 3/6/5 42/6/5 35/8/5
f 82/3/5 81/6/5 178/6/5 180/3/5
f 85/6/6 83/5/6 181/5/6 182/6/6
f 83/5/3 84/4/3 183/4/3 181/5/3
f 3/6/5 6/6/5 34/6/5 42/6/5
f 84/4/4 86/3/4 184/3/4 183/4/4
f 86/3/5 85/6/5 182/6/5 184/3/5
f 89/6/6 87/5/6 185/5/6 186/6/6
f 87/5/3 88/4/3 187/4/3 185/5/3
f 37/5/5 28/5/5 136/5/5 139/5/5
f 10/6/6 9/5/6 124/5/6 123/6/6
f 88/4/4 90/3/4 188/3/4 187/4/4
f 9/5/3 7/5/3 31/5/3 124/5/3
f 90/3/5 89/6/5 186/6/5 188/3/5
f 8/6/5 10/6/5 123/6/5 32/6/5
f 93/6/6 91/5/6 189/5/6 190/6/6
f 15/6/5 12/6/5 126/6/5 125/6/5
f 91/5/3 92/4/3 191/4/3 189/5/3
f 25/5/5 40/5/5 140/5/5 135/5/5
f 12/6/6 8/6/6 32/6/6 126/6/6
f 92/4/4 94/3/4 192/3/4 191/4/4
f 6/6/4 11/6/4 127/6/4 34/6/4
f 94/3/5 93/6/5 190/6/5 192/3/5
f 45/6/6 43/5/6 142/5/6 141/6/6
f 7/5/3 13/5/3 128/5/3 31/5/3
f 97/6/6 95/5/6 193/5/6 194/6/6
f 43/5/3 44/4/3 143/4/3 142/5/3
f 95/5/3 96/4/3 195/4/3 193/5/3
f 44/4/4 46/3/4 144/3/4 143/4/4
f 24/6/5 15/6/5 125/6/5 130/6/5
f 96/4/4 98/3/4 196/3/4 195/4/4
f 46/3/5 45/6/5 141/6/5 144/3/5
f 98/3/5 97/6/5 194/6/5 196/3/5
f 49/6/6 47/5/6 145/5/6 146/6/6
f 101/6/6 99/5/6 197/5/6 198/6/6
f 47/5/3 48/4/3 147/4/3 145/5/3
f 99/5/3 100/4/3 199/4/3 197/5/3
f 48/4/4 50/3/4 148/3/4 147/4/4
f 4/3/5 17/2/5 132/2/5 36/3/5
f 100/4/4 102/3/4 200/3/4 199/4/4
f 50/3/5 49/6/5 146/6/5 148/3/5
f 102/3/5 101/6/5 198/6/5 200/3/5
f 53/6/6 51/5/6 149/5/6 150/6/6
f 19/5/3 18/5/3 134/5/3 133/5/3
f 105/6/6 103/5/6 201/5/6 202/6/6
f 51/5/3 52/4/3 151/4/3 149/5/3
f 25/5/3 19/5/3 133/5/3 135/5/3
f 103/5/3 104/4/3 203/4/3 201/5/3
f 52/4/4 54/3/4 152/3/4 151/4/4
f 28/7/3 21/1/3 137/1/3 136/7/3
f 104/4/4 106/3/4 204/3/4 203/4/4
f 54/3/5 53/6/5 150/6/5 152/3/5
f 21/1/4 16/1/4 39/1/4 137/1/4
f 106/3/5 105/6/5 202/6/5 204/3/5
f 57/6/6 55/5/6 153/5/6 154/6/6
f 109/6/6 107/5/6 205/5/6 206/6/6
f 55/5/3 56/4/3 155/4/3 153/5/3
f 107/5/3 108/4/3 207/4/3 205/5/3
f 56/4/4 58/3/4 156/3/4 155/4/4
f 13/5/6 20/5/6 138/5/6 128/5/6
f 108/4/4 110/3/4 208/3/4 207/4/4
f 58/3/5 57/6/5 154/6/5 156/3/5
f 110/3/5 109/6/5 206/6/5 208/3/5
f 61/6/6 59/5/6 157/5/6 158/6/6
f 113/6/6 111/5/6 209/5/6 210/6/6
f 59/5/3 60/4/3 159/4/3 157/5/3
f 11/6/5 24/6/5 130/6/5 127/6/5
f 111/5/3 112/4/3 211/4/3 209/5/3
f 60/4/4 62/3/4 160/3/4 159/4/4
f 20/5/3 25/5/3 135/5/3 138/5/3
f 112/4/4 114/3/4 212/3/4 211/4/4
f 62/3/5 61/6/5 158/6/5 160/3/5
f 114/3/5 113/6/5 210/6/5 212/3/5
f 65/6/6 63/5/6 161/5/6 162/6/6
f 117/6/6 115/5/6 213/5/6 214/6/6
f 63/5/3 64/4/3 163/4/3 161/5/3
f 115/5/3 116/4/3 215/4/3 213/5/3
f 64/4/4 66/3/4 164/3/4 163/4/4
f 17/2/5 26/8/5 35/8/5 132/2/5
f 116/4/4 118/3/4 216/3/4 215/4/4
f 66/3/5 65/6/5 162/6/5 164/3/5
f 118/3/5 117/6/5 214/6/5 216/3/5
f 69/6/6 67/5/6 165/5/6 166/6/6
f 18/5/3 28/7/3 136/7/3 134/5/3
f 121/6/6 119/5/6 217/5/6 218/6/6
f 67/5/3 68/4/3 167/4/3 165/5/3
f 119/5/3 120/4/3 219/4/3 217/5/3
f 68/4/4 70/3/4 168/3/4 167/4/4
f 120/4/4 122/3/4 220/3/4 219/4/4
f 70/3/5 69/6/5 166/6/5 168/3/5
f 122/3/5 121/6/5 218/6/5 220/3/5
f 73/6/6 71/5/6 169/5/6 170/6/6
f 71/5/3 72/4/3 171/4/3 169/5/3
f 72/4/4 74/3/4 172/3/4 171/4/4
f 74/3/5 73/6/5 170/6/5 172/3/5
f 77/6/6 75/5/6 173/5/6 174/6/6
f 135/5/2 140/5/2 224/5/2 223/5/2
f 40/5/1 25/5/1 221/5/1 222/5/1
f 222/5/3 221/5/3 223/5/3 224/5/3
f 25/5/4 135/5/4 223/5/4 221/5/4
f 140/5/6 40/5/6 222/5/6 224/5/6
f 227/5/2 228/5/2 232/5/2 231/5/2
f 226/5/1 225/5/1 229/5/1 230/5/1
f 230/5/3 229/5/3 231/5/3 232/5/3
f 225/5/4 227/5/4 231/5/4 229/5/4
f 228/5/6 226/5/6 230/5/6 232/5/6
f 19/5/2 25/5/2 235/5/2 234/5/2
f 18/5/2 19/5/2 234/5/2 233/5/2
f 18/5/2 233/5/2 237/5/2 236/5/2
f 235/5/2 25/5/2 238/5/2 239/5/2
f 221/5/5 223/5/5 241/5/5 240/5/5
f 242/5/5 243/5/5 245/5/5 244/5/5
f 246/5/5 247/5/5 249/5/5 248/5/5
f 250/5/5 251/5/5 253/5/5 252/5/5
f 245/5/5 247/5/5 246/5/5 244/5/5
f 135/5/1 228/5/1 232/5/1 223/5/1
