# Blender 4.5.3 LTS
# www.blender.org
mtllib 3к 3D.mtl
o Plane
v -1.572280 0.000000 -0.428042
v -2.393176 0.000000 -0.428042
v -1.572280 0.000000 0.392853
v -2.393176 0.000000 0.392853
v 2.171893 0.000000 -0.428042
v 2.171893 0.000000 0.392853
v -1.572280 0.000000 0.590130
v -2.393176 0.000000 0.590130
v -1.572280 0.000000 0.606676
v -2.393176 0.000000 0.606676
v -1.572280 0.000000 0.625767
v -2.393176 0.000000 0.625767
v -1.572280 0.000000 0.642313
v -2.393176 0.000000 0.642313
v -1.572280 0.738061 0.392853
v -1.572280 0.738061 -0.428042
v -2.393176 0.738061 -0.428042
v -2.393176 0.738061 0.392853
v 2.171893 0.738061 0.392853
v 2.171893 0.738061 -0.428042
v -2.393176 0.254997 0.392853
v -1.572280 0.254997 0.392853
v -2.393176 0.254997 0.590130
v -1.572280 0.254997 0.590130
v -2.393176 0.026407 0.590130
v -1.572280 0.026407 0.590130
v -2.393176 0.026407 0.606676
v -1.572280 0.026407 0.606676
v -2.393176 0.015686 0.606676
v -1.572280 0.015686 0.606676
v -2.393176 0.015686 0.625767
v -1.572280 0.015686 0.625767
v -2.393176 0.008108 0.625767
v -1.572280 0.008108 0.625767
v -2.393176 0.008108 0.642313
v -1.572280 0.008108 0.642313
vn -0.0000 -0.0000 -1.0000
vn -0.0000 -0.0000 1.0000
vn -1.0000 -0.0000 -0.0000
vn 1.0000 -0.0000 -0.0000
vn -0.0000 -1.0000 -0.0000
vt 1.000000 1.000000
vt 0.000000 1.000000
vt 0.000000 0.000000
vt 1.000000 0.000000
s 0
f 4/1/1 18/1/1 15/2/1 3/2/1
f 5/3/2 20/3/2 16/3/2 1/3/2
f 8/1/1 23/1/1 24/2/1 7/2/1
f 7/2/2 26/2/2 25/1/2 8/1/2
f 11/3/3 32/3/3 30/3/3 9/3/3
f 12/3/4 33/3/4 35/3/4 14/3/4
f 16/3/5 15/2/5 18/1/5 17/4/5
f 16/3/5 20/3/5 19/2/5 15/2/5
f 1/3/2 16/3/2 17/3/2 2/3/2
f 3/3/1 15/3/1 19/3/1 6/3/1
f 6/3/3 19/3/3 20/3/3 5/3/3
f 2/3/4 17/3/4 18/3/4 4/3/4
f 22/2/5 24/2/5 23/1/5 21/1/5
f 3/2/2 22/2/2 21/1/2 4/1/2
f 7/3/3 24/3/3 22/3/3 3/3/3
f 4/3/4 21/3/4 23/3/4 8/3/4
f 26/2/5 28/2/5 27/1/5 25/1/5
f 8/3/4 25/3/4 27/3/4 10/3/4
f 10/1/1 27/1/1 28/2/1 9/2/1
f 9/3/3 28/3/3 26/3/3 7/3/3
f 30/2/5 32/2/5 31/1/5 29/1/5
f 9/2/2 30/2/2 29/1/2 10/1/2
f 10/3/4 29/3/4 31/3/4 12/3/4
f 12/1/1 31/1/1 32/2/1 11/2/1
f 34/2/5 36/2/5 35/1/5 33/1/5
f 14/3/1 35/3/1 36/3/1 13/3/1
f 13/3/3 36/3/3 34/3/3 11/3/3
f 11/2/2 34/2/2 33/1/2 12/1/2
