# Blender 4.5.3 LTS
# www.blender.org
mtllib 5к.mtl
o Plane
v -1.619610 0.000000 -1.458730
v -0.787322 0.000000 -1.458730
v -1.619610 0.000000 -2.291017
v -0.787322 0.000000 -2.291017
v -1.619610 0.000000 -1.212406
v -0.787322 0.000000 -1.212406
v -1.491904 0.000000 -1.458730
v -1.491904 0.000000 -2.291017
v -1.491904 0.000000 -1.212406
v -0.787322 0.000000 -0.515223
v -1.491904 0.000000 -0.515223
v -0.787322 0.000000 -0.271099
v -1.491904 0.000000 -0.271099
v -0.787322 0.000000 0.254904
v -1.491904 0.000000 0.254904
v -0.787322 0.000000 1.447814
v -1.491904 0.000000 1.447814
v -1.393620 0.000000 -1.458730
v -1.393620 0.000000 -1.212406
v -1.393620 0.000000 -2.291017
v -1.393620 0.000000 -0.515223
v -1.393620 0.000000 -0.271099
v -1.393620 0.000000 0.254904
v -1.393620 0.000000 1.447814
v -0.787322 0.000000 2.123646
v -1.393620 0.000000 2.123646
v 0.255154 0.000000 -0.515223
v 0.255154 0.000000 -0.271099
v 0.255154 0.000000 0.254904
v 1.312938 0.000000 -0.515223
v 1.312938 0.000000 -0.271099
v 1.312938 0.000000 0.254904
v 0.255154 0.000000 -2.269750
v 1.312938 0.000000 -2.269750
v 0.255154 0.000000 1.417200
v 1.312938 0.000000 1.417200
v -0.787322 0.000000 -0.707025
v -1.491904 0.000000 -0.707025
v -1.393620 0.000000 -0.707025
v -0.787322 0.000000 -0.501729
v -1.491904 0.000000 -0.501729
v -1.393620 0.000000 -0.501729
v 0.255154 0.000000 -0.501729
v 1.312938 0.000000 -0.501729
v -1.619610 0.063372 -2.291017
v -1.619610 0.063372 -1.458730
v -1.393620 0.063372 -1.458730
v -0.787322 0.063372 -1.458730
v -0.787322 0.063372 -2.291017
v -1.491904 0.063372 -2.291017
v -1.393620 0.063372 -1.212406
v -0.787322 0.063372 -1.212406
v -1.619610 0.063372 -1.212406
v -1.491904 0.063372 -1.458730
v -1.393620 0.063372 -2.291017
v -1.491904 0.063372 -1.212406
v -1.393620 0.063372 -0.515223
v -0.787322 0.063372 -0.515223
v -0.787322 0.063372 -0.707025
v -1.491904 0.063372 -0.707025
v -1.491904 0.063372 -0.515223
v -1.393620 0.063372 -0.271099
v -0.787322 0.063372 -0.271099
v -0.787322 0.063372 -0.501729
v -1.491904 0.063372 -0.501729
v -1.491904 0.063372 -0.271099
v -1.393620 0.063372 0.254904
v -0.787322 0.063372 0.254904
v -1.491904 0.063372 0.254904
v -1.393620 0.063372 1.447814
v -0.787322 0.063372 1.447814
v -1.491904 0.063372 1.447814
v -1.393620 0.063372 -0.501729
v -1.393620 0.063372 -0.707025
v -1.393620 0.063372 2.123646
v -0.787322 0.063372 2.123646
v 0.255154 0.063372 -0.501729
v 0.255154 0.063372 -0.515223
v 0.255154 0.063372 0.254904
v 0.255154 0.063372 -0.271099
v 1.312938 0.063372 -0.501729
v 1.312938 0.063372 -0.515223
v 1.312938 0.063372 0.254904
v 1.312938 0.063372 -0.271099
v 1.312938 0.063372 -2.269750
v 0.255154 0.063372 -2.269750
v 0.255154 0.063372 1.417200
v 1.312938 0.063372 1.417200
v -1.628623 0.000000 -0.515223
v -1.628623 0.000000 -0.707025
v -1.628623 0.000000 -0.501729
v -1.628623 0.063372 -0.707025
v -1.628623 0.063372 -0.515223
v -1.628623 0.063372 -0.501729
v -1.628623 0.000000 -0.613646
v -1.628623 0.063372 -0.613646
v -1.628623 0.000000 -0.577825
v -1.628623 0.063372 -0.577825
vn -0.0000 -1.0000 -0.0000
vn -0.0000 1.0000 -0.0000
vn 1.0000 -0.0000 -0.0000
vn -1.0000 -0.0000 -0.0000
vn -0.0000 -0.0000 -1.0000
vn -0.0000 -0.0000 1.0000
vt 0.271528 0.000000
vt 0.271528 1.000000
vt 1.000000 1.000000
vt 1.000000 0.000000
vt 0.153439 0.000000
vt 0.000000 0.000000
vt 0.000000 1.000000
vt 0.153439 1.000000
vt 0.271528 0.000000
s 0
f 18/1/1 20/2/1 4/3/1 2/4/1
f 7/5/1 9/5/1 5/6/1 1/6/1
f 18/1/1 19/1/1 9/5/1 7/5/1
f 1/6/1 3/7/1 8/8/1 7/5/1
f 39/1/1 21/1/1 11/5/1 38/5/1
f 42/1/1 22/1/1 13/5/1 41/5/1
f 22/1/1 23/9/1 15/5/1 13/5/1
f 23/9/1 24/9/1 17/5/1 15/5/1
f 14/4/1 16/4/1 24/9/1 23/9/1
f 12/4/1 14/4/1 23/9/1 22/1/1
f 40/4/1 12/4/1 22/1/1 42/1/1
f 37/4/1 10/4/1 21/1/1 39/1/1
f 2/4/1 6/4/1 19/1/1 18/1/1
f 7/5/1 8/8/1 20/2/1 18/1/1
f 16/4/1 25/4/1 26/9/1 24/9/1
f 12/4/1 28/4/1 29/4/1 14/4/1
f 40/4/1 43/4/1 28/4/1 12/4/1
f 28/4/1 31/4/1 32/4/1 29/4/1
f 43/4/1 44/4/1 31/4/1 28/4/1
f 27/4/1 33/4/1 34/4/1 30/4/1
f 32/4/1 36/4/1 35/4/1 29/4/1
f 6/4/1 37/4/1 39/1/1 19/1/1
f 19/1/1 39/1/1 38/5/1 9/5/1
f 27/4/1 30/4/1 44/4/1 43/4/1
f 10/4/1 27/4/1 43/4/1 40/4/1
f 10/4/1 40/4/1 42/1/1 21/1/1
f 21/1/1 42/1/1 41/5/1 11/5/1
f 47/1/2 48/4/2 49/3/2 55/2/2
f 54/5/2 46/6/2 53/6/2 56/5/2
f 47/1/2 54/5/2 56/5/2 51/1/2
f 46/6/2 54/5/2 50/8/2 45/7/2
f 74/1/2 60/5/2 61/5/2 57/1/2
f 73/1/2 65/5/2 66/5/2 62/1/2
f 62/1/2 66/5/2 69/5/2 67/9/2
f 67/9/2 69/5/2 72/5/2 70/9/2
f 68/4/2 67/9/2 70/9/2 71/4/2
f 63/4/2 62/1/2 67/9/2 68/4/2
f 64/4/2 73/1/2 62/1/2 63/4/2
f 59/4/2 74/1/2 57/1/2 58/4/2
f 48/4/2 47/1/2 51/1/2 52/4/2
f 54/5/2 47/1/2 55/2/2 50/8/2
f 71/4/2 70/9/2 75/9/2 76/4/2
f 63/4/2 68/4/2 79/4/2 80/4/2
f 64/4/2 63/4/2 80/4/2 77/4/2
f 80/4/2 79/4/2 83/4/2 84/4/2
f 77/4/2 80/4/2 84/4/2 81/4/2
f 78/4/2 82/4/2 85/4/2 86/4/2
f 83/4/2 79/4/2 87/4/2 88/4/2
f 52/4/2 51/1/2 74/1/2 59/4/2
f 51/1/2 56/5/2 60/5/2 74/1/2
f 78/4/2 77/4/2 81/4/2 82/4/2
f 58/4/2 64/4/2 77/4/2 78/4/2
f 58/4/2 57/1/2 73/1/2 64/4/2
f 57/1/2 61/5/2 65/5/2 73/1/2
f 6/4/3 2/4/3 48/4/3 52/4/3
f 32/4/3 31/4/3 84/4/3 83/4/3
f 1/6/4 5/6/4 53/6/4 46/6/4
f 13/5/4 15/5/4 69/5/4 66/5/4
f 20/2/5 8/8/5 50/8/5 55/2/5
f 11/5/4 41/5/4 65/5/4 61/5/4
f 16/4/3 14/4/3 68/4/3 71/4/3
f 5/6/6 9/5/6 56/5/6 53/6/6
f 15/5/4 17/5/4 72/5/4 69/5/4
f 34/4/5 33/4/5 86/4/5 85/4/5
f 26/9/6 25/4/6 76/4/6 75/9/6
f 33/4/4 27/4/4 78/4/4 86/4/4
f 25/4/3 16/4/3 71/4/3 76/4/3
f 31/4/3 44/4/3 81/4/3 84/4/3
f 30/4/3 34/4/3 85/4/3 82/4/3
f 24/9/4 26/9/4 75/9/4 70/9/4
f 4/3/5 20/2/5 55/2/5 49/3/5
f 35/4/6 36/4/6 88/4/6 87/4/6
f 37/4/3 6/4/3 52/4/3 59/4/3
f 3/7/4 1/6/4 46/6/4 45/7/4
f 36/4/3 32/4/3 83/4/3 88/4/3
f 38/5/4 11/5/4 61/5/4 60/5/4
f 29/4/4 35/4/4 87/4/4 79/4/4
f 2/4/3 4/3/3 49/3/3 48/4/3
f 10/4/3 37/4/3 59/4/3 58/4/3
f 14/4/6 29/4/6 79/4/6 68/4/6
f 8/8/5 3/7/5 45/7/5 50/8/5
f 17/5/6 24/9/6 70/9/6 72/5/6
f 9/5/4 38/5/4 60/5/4 56/5/4
f 41/5/4 13/5/4 66/5/4 65/5/4
f 27/4/5 10/4/5 58/4/5 78/4/5
f 44/4/3 30/4/3 82/4/3 81/4/3
f 61/5/1 65/5/1 94/5/1 93/5/1
f 41/5/2 11/5/2 89/5/2 91/5/2
f 60/5/1 61/5/1 93/5/1 92/5/1
f 11/5/2 38/5/2 90/5/2 89/5/2
f 38/5/6 60/5/6 92/5/6 90/5/6
f 65/5/5 41/5/5 91/5/5 94/5/5
f 90/5/3 92/5/3 96/5/3 95/5/3
f 94/5/3 91/5/3 97/5/3 98/5/3
