# Blender 4.5.3 LTS
# www.blender.org
mtllib 6к.mtl
o Plane
v -0.132652 0.000000 -1.705014
v 0.618256 0.000000 -1.705014
v -0.132652 0.000000 -2.455922
v 0.618256 0.000000 -2.455922
v -0.132652 0.000000 -0.998227
v 0.618256 0.000000 -0.998227
v -0.132652 0.000000 0.790308
v 0.618256 0.000000 0.790308
v -0.132652 0.000000 2.276543
v 0.618256 0.000000 2.276543
v -1.319576 0.000000 -0.998227
v -1.319576 0.000000 0.790308
v -0.132652 0.000000 1.027692
v -1.319576 0.000000 1.027692
v -0.132652 0.000000 -1.163365
v -1.319576 0.000000 -1.163365
v 0.824678 0.000000 -0.998227
v 0.824678 0.000000 0.790308
v 0.618256 0.000000 -0.279126
v -0.132652 0.000000 -0.279126
v -1.319576 0.000000 -0.279126
v 0.824678 0.000000 -0.279126
v -0.132652 0.000000 0.095407
v -1.319576 0.000000 0.095407
v 0.618256 0.000000 0.095407
v 0.824678 0.000000 0.095407
v -0.132652 0.151767 -2.455922
v -0.132652 0.151767 -1.705014
v 0.618256 0.151767 -1.705014
v 0.618256 0.151767 -2.455922
v -0.132652 0.151767 -0.998227
v 0.618256 0.151767 -0.998227
v -0.132652 0.151767 0.790308
v 0.618256 0.151767 0.790308
v 0.618256 0.151767 -0.279126
v -0.132652 0.151767 0.095407
v -0.132652 0.151767 2.276543
v 0.618256 0.151767 2.276543
v -1.319576 0.151767 0.095407
v -1.319576 0.151767 0.790308
v -1.319576 0.151767 -0.998227
v -1.319576 0.151767 1.027692
v -0.132652 0.151767 1.027692
v -0.132652 0.151767 -1.163365
v -1.319576 0.151767 -1.163365
v 0.824678 0.151767 -0.279126
v 0.824678 0.151767 -0.998227
v 0.824678 0.151767 0.790308
v 0.618256 0.151767 0.095407
v -0.132652 0.151767 -0.279126
v -1.319576 0.151767 -0.279126
v 0.824678 0.151767 0.095407
v 1.172706 0.000000 -0.279126
v 1.172706 0.000000 0.095407
v 1.172706 0.151767 -0.279126
v 1.172706 0.151767 0.095407
v 1.172706 0.000000 -0.043486
v 1.172706 0.151767 -0.043486
v 1.172706 0.000000 -0.131360
v 1.172706 0.151767 -0.131360
vn -0.0000 -1.0000 -0.0000
vn -0.0000 1.0000 -0.0000
vn 1.0000 -0.0000 -0.0000
vn -1.0000 -0.0000 -0.0000
vn -0.0000 -0.0000 -1.0000
vn -0.0000 -0.0000 1.0000
vt 0.000000 0.000000
vt 0.000000 1.000000
vt 1.000000 1.000000
vt 1.000000 0.000000
s 0
f 1/1/1 3/2/1 4/3/1 2/4/1
f 2/4/1 6/4/1 5/1/1 1/1/1
f 25/4/1 8/4/1 7/1/1 23/1/1
f 8/4/1 10/4/1 9/1/1 7/1/1
f 20/1/1 21/1/1 11/1/1 5/1/1
f 7/1/1 13/1/1 14/1/1 12/1/1
f 11/1/1 16/1/1 15/1/1 5/1/1
f 25/4/1 26/4/1 18/4/1 8/4/1
f 6/4/1 17/4/1 22/4/1 19/4/1
f 23/1/1 24/1/1 21/1/1 20/1/1
f 6/4/1 19/4/1 20/1/1 5/1/1
f 7/1/1 12/1/1 24/1/1 23/1/1
f 19/4/1 22/4/1 26/4/1 25/4/1
f 19/4/1 25/4/1 23/1/1 20/1/1
f 28/1/2 29/4/2 30/3/2 27/2/2
f 29/4/2 28/1/2 31/1/2 32/4/2
f 49/4/2 36/1/2 33/1/2 34/4/2
f 34/4/2 33/1/2 37/1/2 38/4/2
f 50/1/2 31/1/2 41/1/2 51/1/2
f 33/1/2 40/1/2 42/1/2 43/1/2
f 41/1/2 31/1/2 44/1/2 45/1/2
f 49/4/2 34/4/2 48/4/2 52/4/2
f 32/4/2 35/4/2 46/4/2 47/4/2
f 36/1/2 50/1/2 51/1/2 39/1/2
f 32/4/2 31/1/2 50/1/2 35/4/2
f 33/1/2 36/1/2 39/1/2 40/1/2
f 35/4/2 49/4/2 52/4/2 46/4/2
f 35/4/2 50/1/2 36/1/2 49/4/2
f 5/1/3 15/1/3 44/1/3 31/1/3
f 22/4/3 17/4/3 47/4/3 46/4/3
f 3/2/4 1/1/4 28/1/4 27/2/4
f 17/4/5 6/4/5 32/4/5 47/4/5
f 14/1/6 13/1/6 43/1/6 42/1/6
f 8/4/6 18/4/6 48/4/6 34/4/6
f 2/4/3 4/3/3 30/3/3 29/4/3
f 13/1/3 7/1/3 33/1/3 43/1/3
f 9/1/6 10/4/6 38/4/6 37/1/6
f 4/3/5 3/2/5 27/2/5 30/3/5
f 12/1/4 14/1/4 42/1/4 40/1/4
f 21/1/4 24/1/4 39/1/4 51/1/4
f 10/4/3 8/4/3 34/4/3 38/4/3
f 15/1/5 16/1/5 45/1/5 44/1/5
f 7/1/4 9/1/4 37/1/4 33/1/4
f 11/1/4 21/1/4 51/1/4 41/1/4
f 6/4/3 2/4/3 29/4/3 32/4/3
f 16/1/4 11/1/4 41/1/4 45/1/4
f 18/4/3 26/4/3 52/4/3 48/4/3
f 24/1/4 12/1/4 40/1/4 39/1/4
f 26/4/3 22/4/3 46/4/3 52/4/3
f 1/1/4 5/1/4 31/1/4 28/1/4
f 52/4/1 46/4/1 55/4/1 56/4/1
f 22/4/2 26/4/2 54/4/2 53/4/2
f 46/4/6 22/4/6 53/4/6 55/4/6
f 26/4/5 52/4/5 56/4/5 54/4/5
f 54/4/4 56/4/4 58/4/4 57/4/4
f 55/4/4 53/4/4 59/4/4 60/4/4
