# Blender 4.5.3 LTS
# www.blender.org
mtllib 7к.mtl
o Plane
v -0.638991 0.000000 2.050923
v 0.638991 0.000000 2.050923
v -0.638991 0.000000 0.772940
v 0.638991 0.000000 0.772940
v -0.638991 0.000000 -1.383265
v 0.638991 0.000000 -1.383265
v -0.638991 0.000000 -1.832018
v 0.638991 0.000000 -1.832018
v -0.638991 0.000000 -2.242464
v 0.638991 0.000000 -2.242464
v 0.983765 0.000000 -1.383265
v 0.983765 0.000000 -1.832018
v -0.390788 0.000000 2.050923
v -0.390788 0.000000 0.772940
v -0.390788 0.000000 -1.383265
v -0.390788 0.000000 -1.832018
v -0.390788 0.000000 -2.242464
v 0.319496 0.000000 2.050923
v 0.319496 0.000000 0.772940
v 0.319496 0.000000 -1.383265
v 0.319496 0.000000 -1.832018
v 0.319496 0.000000 -2.242464
v -0.390788 0.000000 2.436243
v 0.319496 0.000000 2.436243
v -0.638991 0.358938 0.772940
v -0.638991 0.358938 2.050923
v 0.319496 0.358938 2.050923
v 0.638991 0.358938 2.050923
v 0.638991 0.358938 0.772940
v -0.390788 0.358938 0.772940
v -0.390788 0.358938 -1.383265
v -0.638991 0.358938 -1.383265
v 0.638991 0.358938 -1.383265
v -0.390788 0.358938 -1.832018
v -0.638991 0.358938 -1.832018
v 0.638991 0.358938 -1.832018
v -0.390788 0.358938 -2.242464
v -0.638991 0.358938 -2.242464
v 0.638991 0.358938 -2.242464
v 0.983765 0.358938 -1.383265
v 0.983765 0.358938 -1.832018
v -0.390788 0.358938 2.050923
v 0.319496 0.358938 0.772940
v 0.319496 0.358938 -1.383265
v 0.319496 0.358938 -1.832018
v 0.319496 0.358938 -2.242464
v -0.390788 0.358938 2.436243
v 0.319496 0.358938 2.436243
vn -0.0000 -1.0000 -0.0000
vn -0.0000 1.0000 -0.0000
vn -0.0000 -0.0000 -1.0000
vn -1.0000 -0.0000 -0.0000
vn -0.0000 -0.0000 1.0000
vn 1.0000 -0.0000 -0.0000
vt 0.750000 0.000000
vt 0.750000 1.000000
vt 1.000000 1.000000
vt 1.000000 0.000000
vt 0.000000 1.000000
vt 0.194215 1.000000
vt 0.000000 0.000000
vt 0.194215 0.000000
s 0
f 18/1/1 19/2/1 4/3/1 2/4/1
f 19/2/1 20/2/1 6/3/1 4/3/1
f 20/2/1 21/2/1 8/3/1 6/3/1
f 21/2/1 22/2/1 10/3/1 8/3/1
f 8/3/1 12/3/1 11/3/1 6/3/1
f 7/5/1 9/5/1 17/6/1 16/6/1
f 5/5/1 7/5/1 16/6/1 15/6/1
f 3/5/1 5/5/1 15/6/1 14/6/1
f 1/7/1 3/5/1 14/6/1 13/8/1
f 16/6/1 17/6/1 22/2/1 21/2/1
f 15/6/1 16/6/1 21/2/1 20/2/1
f 14/6/1 15/6/1 20/2/1 19/2/1
f 13/8/1 14/6/1 19/2/1 18/1/1
f 18/1/1 24/1/1 23/8/1 13/8/1
f 27/1/2 28/4/2 29/3/2 43/2/2
f 43/2/2 29/3/2 33/3/2 44/2/2
f 44/2/2 33/3/2 36/3/2 45/2/2
f 45/2/2 36/3/2 39/3/2 46/2/2
f 36/3/2 33/3/2 40/3/2 41/3/2
f 35/5/2 34/6/2 37/6/2 38/5/2
f 32/5/2 31/6/2 34/6/2 35/5/2
f 25/5/2 30/6/2 31/6/2 32/5/2
f 26/7/2 42/8/2 30/6/2 25/5/2
f 34/6/2 45/2/2 46/2/2 37/6/2
f 31/6/2 44/2/2 45/2/2 34/6/2
f 30/6/2 43/2/2 44/2/2 31/6/2
f 42/8/2 27/1/2 43/2/2 30/6/2
f 27/1/2 42/8/2 47/8/2 48/1/2
f 12/3/3 8/3/3 36/3/3 41/3/3
f 10/3/3 22/2/3 46/2/3 39/3/3
f 3/5/4 1/7/4 26/7/4 25/5/4
f 6/3/5 11/3/5 40/3/5 33/3/5
f 7/5/4 5/5/4 32/5/4 35/5/4
f 18/1/5 2/4/5 28/4/5 27/1/5
f 1/7/5 13/8/5 42/8/5 26/7/5
f 2/4/6 4/3/6 29/3/6 28/4/6
f 17/6/3 9/5/3 38/5/3 37/6/3
f 9/5/4 7/5/4 35/5/4 38/5/4
f 23/8/5 24/1/5 48/1/5 47/8/5
f 8/3/6 10/3/6 39/3/6 36/3/6
f 5/5/4 3/5/4 25/5/4 32/5/4
f 22/2/3 17/6/3 37/6/3 46/2/3
f 24/1/6 18/1/6 27/1/6 48/1/6
f 11/3/6 12/3/6 41/3/6 40/3/6
f 4/3/6 6/3/6 33/3/6 29/3/6
f 13/8/4 23/8/4 47/8/4 42/8/4
