# Blender 4.5.3 LTS
# www.blender.org
mtllib Синий.mtl
o Plane
v -0.908149 0.000000 2.188981
v 1.257726 0.000000 2.188981
v -0.908149 0.000000 0.023106
v 1.257726 0.000000 0.023106
v -0.953015 0.000000 2.188981
v -0.953015 0.000000 0.023106
v -0.908149 0.000000 -1.951591
v 1.257726 0.000000 -1.951591
v -0.936652 0.000000 0.023106
v -0.936652 0.000000 -1.951591
v -0.908149 0.000000 -0.268972
v 1.257726 0.000000 -0.268972
v -0.936652 0.000000 -0.268972
v 1.257726 0.000000 -1.878913
v -0.908149 0.000000 -1.878913
v -0.936652 0.000000 -1.878913
v -1.139341 0.000000 -0.268972
v -1.139341 0.000000 -1.878913
v -0.908149 0.000000 -1.073942
v -0.936652 0.000000 -1.073942
v 1.257726 0.000000 -1.073942
v -1.139341 0.000000 -1.073942
v -0.908149 0.000000 -0.782378
v -0.936652 0.000000 -0.782378
v -1.139341 0.000000 -0.782378
v 1.257726 0.000000 -0.782378
v -1.231184 0.000000 -1.073942
v -1.231184 0.000000 -0.782378
v 1.450914 0.000000 -0.268972
v 1.450914 0.000000 -1.878913
v 1.450914 0.000000 -1.073942
v 1.450914 0.000000 -0.782378
v 0.206774 0.000000 2.188981
v 0.206774 0.000000 0.023106
v 0.206774 0.000000 -1.951591
v 0.206774 0.000000 -0.268972
v 0.206774 0.000000 -1.878913
v 0.206774 0.000000 -1.073942
v 0.206774 0.000000 -0.782378
v -0.364395 0.000000 0.023106
v -0.364395 0.000000 -1.951591
v -0.364395 0.000000 -0.268972
v -0.364395 0.000000 -1.878913
v -0.364395 0.000000 -1.073942
v -0.364395 0.000000 -0.782378
v -0.364395 0.000000 2.188981
v 0.206774 0.000000 2.312114
v -0.364395 0.000000 2.312114
v -0.562739 0.000000 -2.117698
v -0.583116 0.000000 -2.117698
v -0.562739 0.000000 -2.097322
v -0.583116 0.000000 -2.097322
v -0.777991 0.000000 -2.117698
v -0.798368 0.000000 -2.117698
v -0.777991 0.000000 -2.097322
v -0.798368 0.000000 -2.097322
v -0.777991 0.000000 -2.071175
v -0.798368 0.000000 -2.071175
v -1.131534 0.000000 -1.895876
v -1.151910 0.000000 -1.895876
v -1.131534 0.000000 -1.859220
v -1.151910 0.000000 -1.859220
v -0.777991 0.000000 -2.063005
v -1.131534 0.000000 -1.887707
v -0.131168 0.625275 -2.364194
v 0.857747 0.451628 -2.244648
v 1.072999 0.000000 -2.097322
v 1.093376 0.000000 -2.097322
v 1.072999 0.000000 -2.117698
v 1.093376 0.000000 -2.117698
v 0.878124 0.000000 -2.117698
v 0.857747 0.000000 -2.117698
v 0.878124 0.000000 -2.097322
v 0.857747 0.000000 -2.097322
v 1.072999 0.000000 -2.076699
v 1.093376 0.000000 -2.076699
v 1.425805 0.000000 -1.916131
v 1.446182 0.000000 -1.916131
v 1.072999 0.000000 -2.071015
v 1.425805 0.000000 -1.910448
v 1.425805 0.000000 -1.877059
v 1.446182 0.000000 -1.877059
v 0.426071 0.625275 -2.365559
v 0.857747 0.477758 -2.244648
v -0.562739 0.625275 -1.369802
v 0.432292 0.451628 -2.364194
v 0.426071 0.000000 -2.279833
v -0.562739 0.625275 -1.808706
v -0.131168 0.625275 -1.925291
v -0.562739 0.451628 -2.230994
v -0.562739 0.477758 -2.230994
v 1.072999 0.000000 -1.948871
v 1.425805 0.000000 -1.788304
v 1.072999 0.000000 -1.946329
v 0.878124 0.000000 -1.946329
v 0.878124 0.000000 -1.948170
v 0.857747 0.000000 -1.948170
v 0.857747 0.477758 -1.822360
v 0.426071 0.477758 -1.943271
v -0.151914 0.000000 -1.942248
v -0.131537 0.000000 -1.942248
v -0.562739 0.477758 -1.808706
v -0.131168 0.477758 -1.941906
v -0.562739 0.000000 -1.948784
v -0.583116 0.000000 -1.948784
v -0.583116 0.000000 -1.948784
v -0.777991 0.000000 -1.948784
v -0.777991 0.000000 -1.946385
v -1.131534 0.000000 -1.771087
v 0.426071 0.451628 -2.365559
v -0.131168 0.451628 -2.364194
v 0.439658 0.000000 -2.370588
v 0.857747 0.625275 -1.805744
v -0.882758 0.000000 1.908875
v -0.403308 0.000000 1.908875
v -0.882758 0.000000 1.429425
v -0.403308 0.000000 1.429425
v 0.736226 0.000000 1.908875
v 1.215676 0.000000 1.908875
v 0.736226 0.000000 1.429425
v 1.215676 0.000000 1.429425
v 0.164179 0.000000 -1.667660
v -0.030912 0.000000 -1.648445
v -0.218505 0.000000 -1.591540
v -0.391392 0.000000 -1.499130
v -0.542928 0.000000 -1.374767
v -0.667291 0.000000 -1.223230
v -0.759701 0.000000 -1.050344
v -0.816607 0.000000 -0.862750
v -0.835821 0.000000 -0.667660
v -0.816607 0.000000 -0.472570
v -0.759701 0.000000 -0.284976
v -0.667291 0.000000 -0.112090
v -0.542928 0.000000 0.039447
v -0.391392 0.000000 0.163810
v -0.218505 0.000000 0.256220
v -0.030912 0.000000 0.313125
v 0.164179 0.000000 0.332340
v 0.359269 0.000000 0.313125
v 0.546862 0.000000 0.256220
v 0.719749 0.000000 0.163810
v 0.871285 0.000000 0.039447
v 0.995648 0.000000 -0.112090
v 1.088058 0.000000 -0.284976
v 1.144964 0.000000 -0.472570
v 1.164179 0.000000 -0.667660
v 1.144964 0.000000 -0.862750
v 1.088058 0.000000 -1.050344
v 0.995648 0.000000 -1.223230
v 0.871285 0.000000 -1.374767
v 0.719749 0.000000 -1.499130
v 0.546862 0.000000 -1.591540
v 0.359269 0.000000 -1.648445
v -0.908149 3.802372 0.023106
v -0.908149 3.802372 2.188981
v 0.206774 3.802372 2.188981
v 1.257726 3.802372 2.188981
v 1.257726 3.802372 0.023106
v -0.364395 3.802372 0.023106
v -0.953015 3.802372 0.023106
v -0.953015 3.802372 2.188981
v -0.364395 3.802372 -1.951591
v -0.908149 3.802372 -1.951591
v -0.908149 3.802372 -0.268972
v 1.257726 3.802372 -1.878913
v 1.257726 3.802372 -1.951591
v -0.936652 3.802372 -0.268972
v -0.936652 3.802372 0.023106
v -0.936652 3.802372 -1.951591
v -0.908149 3.802372 -0.782378
v 1.257726 3.802372 -0.268972
v -0.936652 3.802372 -0.782378
v -0.364395 3.802372 -0.268972
v 1.257726 3.802372 -1.073942
v -0.908149 3.802372 -1.878913
v -0.936652 3.802372 -1.878913
v -0.364395 3.802372 -1.878913
v -1.139341 3.802372 -0.782378
v -1.139341 3.802372 -0.268972
v -1.139341 3.802372 -1.878913
v -0.908149 3.802372 -1.073942
v -0.936652 3.802372 -1.073942
v 1.257726 3.802372 -0.782378
v -1.139341 3.802372 -1.073942
v -0.364395 3.802372 -1.073942
v -0.364395 3.802372 -0.782378
v -1.231184 3.802372 -1.073942
v -1.231184 3.802372 -0.782378
v 1.450914 3.802372 -1.073942
v 1.450914 3.802372 -1.878913
v 1.450914 3.802372 -0.782378
v 1.450914 3.802372 -0.268972
v -0.364395 3.802372 2.188981
v 0.206774 3.802372 0.023106
v 0.206774 3.802372 -1.951591
v 0.206774 3.802372 -0.268972
v 0.206774 3.802372 -1.878913
v 0.206774 3.802372 -1.073942
v 0.206774 3.802372 -0.782378
v -0.364395 3.802372 2.312114
v 0.206774 3.802372 2.312114
v -0.562739 3.802372 -2.097322
v -0.562739 3.802372 -2.117698
v -0.583116 3.802372 -2.117698
v -0.583116 3.802372 -2.097322
v -0.777991 3.802372 -2.117698
v -0.777991 3.802372 -2.097322
v -0.798368 3.802372 -2.117698
v -0.798368 3.802372 -2.097322
v -0.777991 3.802372 -2.071175
v -0.798368 3.802372 -2.071175
v -1.131534 3.802372 -1.895876
v -1.151910 3.802372 -1.895876
v -1.131534 3.802372 -1.859220
v -1.151910 3.802372 -1.859220
v -1.131534 3.802372 -1.887707
v -0.777991 3.802372 -2.063005
v -0.562739 0.625275 -2.230994
v 1.093376 3.802372 -2.097322
v 1.072999 3.802372 -2.097322
v 1.072999 3.802372 -2.117698
v 1.093376 3.802372 -2.117698
v 0.878124 3.802372 -2.117698
v 0.878124 3.802372 -2.097322
v 0.857747 3.802372 -2.117698
v 0.857747 3.802372 -2.097322
v 1.093376 3.802372 -2.076699
v 1.072999 3.802372 -2.076699
v 1.446182 3.802372 -1.916131
v 1.425805 3.802372 -1.916131
v 1.072999 3.802372 -2.071015
v 1.425805 3.802372 -1.910448
v 1.446182 3.802372 -1.877059
v 1.425805 3.802372 -1.877059
v 0.857747 0.625275 -2.244648
v 0.426071 0.625275 -1.926656
v 0.857747 0.625275 -1.822360
v 0.432292 0.625275 -2.364194
v 1.072999 3.802372 -1.948871
v 1.425805 3.802372 -1.788304
v 1.072999 3.802372 -1.946329
v 0.878124 3.802372 -1.946329
v 0.878124 3.802372 -1.948170
v 0.857747 3.802372 -1.948170
v 0.426071 3.802372 -1.943271
v 0.857747 3.802372 -1.822360
v -0.151914 3.802372 -1.942248
v -0.131537 3.802372 -1.942248
v -0.562739 3.802372 -1.808706
v -0.131168 3.802372 -1.941906
v -0.583116 3.802372 -1.948784
v -0.562739 3.802372 -1.948784
v -0.583116 3.802372 -1.948784
v -0.777991 3.802372 -1.948784
v -1.131534 3.802372 -1.771087
v -0.777991 3.802372 -1.946385
v -0.562739 0.625275 -1.792090
v -0.882758 3.802372 1.429425
v -0.882758 3.802372 1.908875
v -0.403308 3.802372 1.908875
v -0.403308 3.802372 1.429425
v 0.736226 3.802372 1.908875
v 0.736226 3.802372 1.429425
v 1.215676 3.802372 1.908875
v 1.215676 3.802372 1.429425
v -0.030912 3.802372 -1.648445
v 0.164179 3.802372 -1.667660
v -0.218505 3.802372 -1.591540
v -0.391392 3.802372 -1.499130
v -0.542928 3.802372 -1.374767
v -0.667291 3.802372 -1.223230
v -0.759701 3.802372 -1.050344
v -0.816607 3.802372 -0.862750
v -0.835821 3.802372 -0.667660
v -0.816607 3.802372 -0.472570
v -0.759701 3.802372 -0.284976
v -0.667291 3.802372 -0.112090
v -0.542928 3.802372 0.039447
v -0.391392 3.802372 0.163810
v -0.218505 3.802372 0.256220
v -0.030912 3.802372 0.313125
v 0.164179 3.802372 0.332340
v 0.359269 3.802372 0.313125
v 0.546862 3.802372 0.256220
v 0.719749 3.802372 0.163810
v 0.871285 3.802372 0.039447
v 0.995648 3.802372 -0.112090
v 1.088058 3.802372 -0.284976
v 1.144964 3.802372 -0.472570
v 1.164179 3.802372 -0.667660
v 1.144964 3.802372 -0.862750
v 1.088058 3.802372 -1.050344
v 0.995648 3.802372 -1.223230
v 0.871285 3.802372 -1.374767
v 0.719749 3.802372 -1.499130
v 0.546862 3.802372 -1.591540
v 0.359269 3.802372 -1.648445
v -0.882758 3.985282 1.429425
v -0.882758 3.985282 1.908875
v -0.403308 3.985282 1.908875
v -0.403308 3.985282 1.429425
v 0.736226 3.985282 1.908875
v 0.736226 3.985282 1.429425
v 1.215676 3.985282 1.908875
v 1.215676 3.985282 1.429425
v -0.030912 3.953053 -1.648445
v 0.164179 3.953053 -1.667660
v -0.218505 3.953053 -1.591540
v -0.391392 3.953053 -1.499130
v -0.542928 3.953053 -1.374767
v -0.667291 3.953053 -1.223230
v -0.759701 3.953053 -1.050344
v -0.816607 3.953053 -0.862750
v -0.835821 3.953053 -0.667660
v -0.816607 3.953053 -0.472570
v -0.759701 3.953053 -0.284976
v -0.667291 3.953053 -0.112090
v -0.542928 3.953053 0.039447
v -0.391392 3.953053 0.163810
v -0.218505 3.953053 0.256220
v -0.030912 3.953053 0.313125
v 0.164179 3.953053 0.332340
v 0.359269 3.953053 0.313125
v 0.546862 3.953053 0.256220
v 0.719749 3.953053 0.163810
v 0.871285 3.953053 0.039447
v 0.995648 3.953053 -0.112090
v 1.088058 3.953053 -0.284976
v 1.144964 3.953053 -0.472570
v 1.164179 3.953053 -0.667660
v 1.144964 3.953053 -0.862750
v 1.088058 3.953053 -1.050344
v 0.995648 3.953053 -1.223230
v 0.871285 3.953053 -1.374767
v 0.719749 3.953053 -1.499130
v 0.546862 3.953053 -1.591540
v 0.359269 3.953053 -1.648445
v 0.857747 0.625275 -1.383456
v 0.432292 0.625275 -1.925291
v -0.562739 0.451628 -2.094067
v -0.131168 0.451628 -2.227268
v 0.432292 0.451628 -2.219230
v -0.131168 0.451628 -2.219230
v 0.857747 0.451628 -1.793306
v 0.426071 0.451628 -1.914217
vn -0.0000 -1.0000 -0.0000
vn -1.0000 -0.0000 -0.0000
vn 1.0000 -0.0000 -0.0000
vn -0.0000 -0.0000 -1.0000
vn -0.0000 1.0000 -0.0000
vn 0.2697 -0.0000 -0.9629
vn -0.0000 -0.0000 1.0000
vn 0.0980 -0.0000 0.9952
vn 0.2903 -0.0000 0.9569
vn 0.4714 -0.0000 0.8819
vn -0.4442 -0.0000 -0.8959
vn 0.6344 -0.0000 0.7730
vn 0.7730 -0.0000 0.6344
vn 0.8819 -0.0000 0.4714
vn 0.9569 -0.0000 0.2903
vn 0.9952 -0.0000 0.0980
vn 0.9952 -0.0000 -0.0980
vn 0.9569 -0.0000 -0.2903
vn 0.8819 -0.0000 -0.4714
vn -0.4142 -0.0000 0.9102
vn 0.7730 -0.0000 -0.6344
vn 0.6344 -0.0000 -0.7730
vn 0.4714 -0.0000 -0.8819
vn 0.2903 -0.0000 -0.9569
vn 0.0980 -0.0000 -0.9952
vn -0.0980 -0.0000 -0.9952
vn -0.2903 -0.0000 -0.9569
vn -0.4714 -0.0000 -0.8819
vn -0.6344 -0.0000 -0.7730
vn -0.2697 -0.0000 0.9629
vn -0.7730 -0.0000 -0.6344
vn -0.8819 -0.0000 -0.4714
vn -0.9569 -0.0000 -0.2903
vn -0.9952 -0.0000 -0.0980
vn -0.9952 -0.0000 0.0980
vn 0.4142 -0.0000 -0.9102
vn -0.9569 -0.0000 0.2903
vn 0.2949 -0.0000 0.9555
vn -0.8819 -0.0000 0.4714
vn -0.7730 -0.0000 0.6344
vn -0.6344 -0.0000 0.7730
vn -0.4714 -0.0000 0.8819
vn -0.2903 -0.0000 0.9569
vn -0.0980 -0.0000 0.9952
vn 0.4442 -0.0000 0.8959
vn -0.2949 -0.0000 -0.9555
vt 0.514768 0.000000
vt 0.514768 1.000000
vt 1.000000 1.000000
vt 1.000000 0.000000
vt 0.000000 0.000000
vt 0.000000 1.000000
vt 0.251055 1.000000
vt 0.251055 0.000000
s 0
f 33/1/1 34/2/1 4/3/1 2/4/1
f 1/5/1 5/5/1 6/6/1 3/6/1
f 37/2/1 35/2/1 8/3/1 14/3/1
f 15/6/1 16/6/1 10/6/1 7/6/1
f 3/6/1 9/6/1 13/6/1 11/6/1
f 34/2/1 36/2/1 12/3/1 4/3/1
f 19/6/1 20/6/1 16/6/1 15/6/1
f 38/2/1 37/2/1 14/3/1 21/3/1
f 20/6/1 22/6/1 18/6/1 16/6/1
f 24/6/1 25/6/1 22/6/1 20/6/1
f 39/2/1 38/2/1 21/3/1 26/3/1
f 23/6/1 24/6/1 20/6/1 19/6/1
f 11/6/1 13/6/1 24/6/1 23/6/1
f 36/2/1 39/2/1 26/3/1 12/3/1
f 13/6/1 17/6/1 25/6/1 24/6/1
f 25/6/1 28/6/1 27/6/1 22/6/1
f 26/3/1 32/3/1 29/3/1 12/3/1
f 21/3/1 31/3/1 32/3/1 26/3/1
f 14/3/1 30/3/1 31/3/1 21/3/1
f 42/7/1 45/7/1 39/2/1 36/2/1
f 45/7/1 44/7/1 38/2/1 39/2/1
f 44/7/1 43/7/1 37/2/1 38/2/1
f 40/7/1 42/7/1 36/2/1 34/2/1
f 43/7/1 41/7/1 35/2/1 37/2/1
f 46/8/1 40/7/1 34/2/1 33/1/1
f 1/5/1 3/6/1 40/7/1 46/8/1
f 15/6/1 7/6/1 41/7/1 43/7/1
f 3/6/1 11/6/1 42/7/1 40/7/1
f 19/6/1 15/6/1 43/7/1 44/7/1
f 23/6/1 19/6/1 44/7/1 45/7/1
f 11/6/1 23/6/1 45/7/1 42/7/1
f 33/1/1 47/1/1 48/8/1 46/8/1
f 49/5/1 51/6/1 52/3/1 50/4/1
f 53/5/1 55/6/1 56/3/1 54/4/1
f 52/3/1 55/6/1 53/5/1 50/4/1
f 55/6/1 57/6/1 58/3/1 56/3/1
f 57/6/1 59/6/1 60/3/1 58/3/1
f 59/6/1 61/6/1 62/3/1 60/3/1
f 57/6/1 63/6/1 64/6/1 59/6/1
f 237/4/2 235/4/2 113/4/2 338/4/2
f 70/5/1 68/6/1 67/3/1 69/4/1
f 71/5/1 73/6/1 74/3/1 72/4/1
f 68/6/1 76/6/1 75/3/1 67/3/1
f 76/6/1 78/6/1 77/3/1 75/3/1
f 77/3/1 80/3/1 79/3/1 75/3/1
f 78/6/1 82/6/1 81/3/1 77/3/1
f 67/3/1 73/6/1 71/5/1 69/4/1
f 98/4/3 84/4/3 235/4/3 237/4/3
f 65/5/4 238/5/4 86/5/4 111/5/4
f 218/5/5 88/5/5 85/5/5 257/5/5
f 91/5/2 102/5/2 88/5/2 218/5/2
f 80/3/1 93/3/1 92/3/1 79/3/1
f 67/3/1 94/3/1 95/6/1 73/6/1
f 73/6/1 96/6/1 97/3/1 74/3/1
f 98/4/1 102/5/1 91/5/1 84/4/1
f 51/6/1 104/6/1 105/3/1 52/3/1
f 52/3/1 106/3/1 107/6/1 55/6/1
f 63/6/1 108/6/1 109/6/1 64/6/1
f 83/4/6 235/4/6 66/4/6 110/4/6
f 114/5/1 116/6/1 117/3/1 115/4/1
f 118/5/1 120/6/1 121/3/1 119/4/1
f 156/1/5 157/4/5 158/3/5 194/2/5
f 155/5/5 154/6/5 160/6/5 161/5/5
f 197/2/5 165/3/5 166/3/5 195/2/5
f 175/6/5 163/6/5 169/6/5 176/6/5
f 154/6/5 164/6/5 167/6/5 168/6/5
f 194/2/5 158/3/5 171/3/5 196/2/5
f 181/6/5 175/6/5 176/6/5 182/6/5
f 198/2/5 174/3/5 165/3/5 197/2/5
f 182/6/5 176/6/5 180/6/5 184/6/5
f 172/6/5 182/6/5 184/6/5 178/6/5
f 199/2/5 183/3/5 174/3/5 198/2/5
f 170/6/5 181/6/5 182/6/5 172/6/5
f 164/6/5 170/6/5 172/6/5 167/6/5
f 196/2/5 171/3/5 183/3/5 199/2/5
f 167/6/5 172/6/5 178/6/5 179/6/5
f 178/6/5 184/6/5 187/6/5 188/6/5
f 183/3/5 171/3/5 192/3/5 191/3/5
f 174/3/5 183/3/5 191/3/5 189/3/5
f 165/3/5 174/3/5 189/3/5 190/3/5
f 173/7/5 196/2/5 199/2/5 186/7/5
f 186/7/5 199/2/5 198/2/5 185/7/5
f 185/7/5 198/2/5 197/2/5 177/7/5
f 159/7/5 194/2/5 196/2/5 173/7/5
f 177/7/5 197/2/5 195/2/5 162/7/5
f 193/8/5 156/1/5 194/2/5 159/7/5
f 155/5/5 193/8/5 159/7/5 154/6/5
f 175/6/5 177/7/5 162/7/5 163/6/5
f 154/6/5 159/7/5 173/7/5 164/6/5
f 181/6/5 185/7/5 177/7/5 175/6/5
f 170/6/5 186/7/5 185/7/5 181/6/5
f 164/6/5 173/7/5 186/7/5 170/6/5
f 156/1/5 193/8/5 200/8/5 201/1/5
f 203/5/5 204/4/5 205/3/5 202/6/5
f 206/5/5 208/4/5 209/3/5 207/6/5
f 205/3/5 204/4/5 206/5/5 207/6/5
f 207/6/5 209/3/5 211/3/5 210/6/5
f 210/6/5 211/3/5 213/3/5 212/6/5
f 212/6/5 213/3/5 215/3/5 214/6/5
f 210/6/5 212/6/5 216/6/5 217/6/5
f 222/5/5 221/4/5 220/3/5 219/6/5
f 223/5/5 225/4/5 226/3/5 224/6/5
f 219/6/5 220/3/5 228/3/5 227/6/5
f 227/6/5 228/3/5 230/3/5 229/6/5
f 230/3/5 228/3/5 231/3/5 232/3/5
f 229/6/5 230/3/5 234/3/5 233/6/5
f 220/3/5 221/4/5 223/5/5 224/6/5
f 232/3/5 231/3/5 239/3/5 240/3/5
f 220/3/5 224/6/5 242/6/5 241/3/5
f 224/6/5 226/3/5 244/3/5 243/6/5
f 235/4/5 83/4/5 236/4/5 113/4/5
f 202/6/5 205/3/5 251/3/5 252/6/5
f 205/3/5 207/6/5 254/6/5 253/3/5
f 217/6/5 216/6/5 255/6/5 256/6/5
f 261/3/4 258/6/4 298/6/4 301/3/4
f 262/5/7 264/4/7 304/4/7 302/5/7
f 53/5/4 54/4/4 208/4/4 206/5/4
f 114/5/7 115/4/7 260/4/7 259/5/7
f 54/4/2 56/3/2 209/3/2 208/4/2
f 115/4/3 117/3/3 261/3/3 260/4/3
f 117/3/4 116/6/4 258/6/4 261/3/4
f 50/4/4 53/5/4 206/5/4 204/4/4
f 120/6/2 118/5/2 262/5/2 263/6/2
f 118/5/7 119/4/7 264/4/7 262/5/7
f 119/4/3 121/3/3 265/3/3 264/4/3
f 57/6/3 55/6/3 207/6/3 210/6/3
f 121/3/4 120/6/4 263/6/4 265/3/4
f 56/3/2 58/3/2 211/3/2 209/3/2
f 123/5/8 122/5/8 267/5/8 266/5/8
f 27/6/2 28/6/2 188/6/2 187/6/2
f 124/5/9 123/5/9 266/5/9 268/5/9
f 28/6/7 25/6/7 178/6/7 188/6/7
f 125/5/10 124/5/10 268/5/10 269/5/10
f 22/6/4 27/6/4 187/6/4 184/6/4
f 58/3/11 60/3/11 213/3/11 211/3/11
f 126/5/12 125/5/12 269/5/12 270/5/12
f 31/3/3 30/3/3 190/3/3 189/3/3
f 62/3/7 61/6/7 214/6/7 215/3/7
f 127/5/13 126/5/13 270/5/13 271/5/13
f 32/3/3 31/3/3 189/3/3 191/3/3
f 61/6/3 59/6/3 212/6/3 214/6/3
f 128/5/14 127/5/14 271/5/14 272/5/14
f 29/3/3 32/3/3 191/3/3 192/3/3
f 60/3/2 62/3/2 215/3/2 213/3/2
f 129/5/15 128/5/15 272/5/15 273/5/15
f 130/5/16 129/5/16 273/5/16 274/5/16
f 12/3/7 29/3/7 192/3/7 171/3/7
f 63/6/3 57/6/3 210/6/3 217/6/3
f 131/5/17 130/5/17 274/5/17 275/5/17
f 59/6/2 64/6/2 216/6/2 212/6/2
f 132/5/18 131/5/18 275/5/18 276/5/18
f 30/3/4 14/3/4 165/3/4 190/3/4
f 133/5/19 132/5/19 276/5/19 277/5/19
f 92/3/20 93/3/20 240/3/20 239/3/20
f 134/5/21 133/5/21 277/5/21 278/5/21
f 93/3/3 80/3/3 232/3/3 240/3/3
f 65/5/5 218/5/5 257/5/5 89/5/5
f 135/5/22 134/5/22 278/5/22 279/5/22
f 8/3/4 35/2/4 195/2/4 166/3/4
f 79/3/2 92/3/2 239/3/2 231/3/2
f 33/1/7 2/4/7 157/4/7 156/1/7
f 136/5/23 135/5/23 279/5/23 280/5/23
f 95/6/7 94/3/7 241/3/7 242/6/7
f 2/4/3 4/3/3 158/3/3 157/4/3
f 137/5/24 136/5/24 280/5/24 281/5/24
f 94/3/3 67/3/3 220/3/3 241/3/3
f 68/6/3 70/5/3 222/5/3 219/6/3
f 138/5/25 137/5/25 281/5/25 282/5/25
f 73/6/2 95/6/2 242/6/2 224/6/2
f 6/6/2 5/5/2 161/5/2 160/6/2
f 70/5/4 69/4/4 221/4/4 222/5/4
f 139/5/26 138/5/26 282/5/26 283/5/26
f 97/3/7 96/6/7 243/6/7 244/3/7
f 5/5/7 1/5/7 155/5/7 161/5/7
f 140/5/27 139/5/27 283/5/27 284/5/27
f 96/6/3 73/6/3 224/6/3 243/6/3
f 3/6/4 6/6/4 160/6/4 154/6/4
f 141/5/28 140/5/28 284/5/28 285/5/28
f 74/3/2 97/3/2 244/3/2 226/3/2
f 41/7/4 7/6/4 163/6/4 162/7/4
f 72/4/2 74/3/2 226/3/2 225/4/2
f 142/5/29 141/5/29 285/5/29 286/5/29
f 99/4/30 98/4/30 246/4/30 245/4/30
f 143/5/31 142/5/31 286/5/31 287/5/31
f 14/3/3 8/3/3 166/3/3 165/3/3
f 144/5/32 143/5/32 287/5/32 288/5/32
f 13/6/2 9/6/2 168/6/2 167/6/2
f 76/6/3 68/6/3 219/6/3 227/6/3
f 145/5/33 144/5/33 288/5/33 289/5/33
f 101/5/4 100/4/4 247/4/4 248/5/4
f 9/6/7 3/6/7 154/6/7 168/6/7
f 67/3/2 75/3/2 228/3/2 220/3/2
f 146/5/34 145/5/34 289/5/34 290/5/34
f 238/5/5 65/5/5 89/5/5 339/5/5
f 7/6/4 10/6/4 169/6/4 163/6/4
f 147/5/35 146/5/35 290/5/35 291/5/35
f 35/2/4 41/7/4 162/7/4 195/2/4
f 78/6/36 76/6/36 227/6/36 229/6/36
f 148/5/37 147/5/37 291/5/37 292/5/37
f 102/5/38 103/5/38 250/5/38 249/5/38
f 4/3/3 12/3/3 171/3/3 158/3/3
f 149/5/39 148/5/39 292/5/39 293/5/39
f 150/5/40 149/5/40 293/5/40 294/5/40
f 80/3/3 77/3/3 230/3/3 232/3/3
f 151/5/41 150/5/41 294/5/41 295/5/41
f 105/3/7 104/6/7 252/6/7 251/3/7
f 75/3/2 79/3/2 231/3/2 228/3/2
f 152/5/42 151/5/42 295/5/42 296/5/42
f 1/5/7 46/8/7 193/8/7 155/5/7
f 104/6/3 51/6/3 202/6/3 252/6/3
f 81/3/7 82/6/7 233/6/7 234/3/7
f 153/5/43 152/5/43 296/5/43 297/5/43
f 52/3/2 105/3/2 251/3/2 205/3/2
f 82/6/3 78/6/3 229/6/3 233/6/3
f 122/5/44 153/5/44 297/5/44 267/5/44
f 107/6/7 106/3/7 253/3/7 254/6/7
f 10/6/2 16/6/2 176/6/2 169/6/2
f 77/3/2 81/3/2 234/3/2 230/3/2
f 106/3/3 52/3/3 205/3/3 253/3/3
f 69/4/4 71/5/4 223/5/4 221/4/4
f 55/6/2 107/6/2 254/6/2 207/6/2
f 109/6/45 108/6/45 256/6/45 255/6/45
f 25/6/2 17/6/2 179/6/2 178/6/2
f 108/6/3 63/6/3 217/6/3 256/6/3
f 17/6/7 13/6/7 167/6/7 179/6/7
f 218/5/46 65/5/46 111/5/46 90/5/46
f 48/8/7 47/1/7 201/1/7 200/8/7
f 64/6/2 109/6/2 255/6/2 216/6/2
f 16/6/4 18/6/4 180/6/4 176/6/4
f 47/1/3 33/1/3 156/1/3 201/1/3
f 46/8/2 48/8/2 200/8/2 193/8/2
f 51/6/3 49/5/3 203/5/3 202/6/3
f 18/6/2 22/6/2 184/6/2 180/6/2
f 116/6/2 114/5/2 259/5/2 258/6/2
f 299/5/5 300/4/5 301/3/5 298/6/5
f 302/5/5 304/4/5 305/3/5 303/6/5
f 259/5/7 260/4/7 300/4/7 299/5/7
f 264/4/3 265/3/3 305/3/3 304/4/3
f 263/6/2 262/5/2 302/5/2 303/6/2
f 260/4/3 261/3/3 301/3/3 300/4/3
f 258/6/2 259/5/2 299/5/2 298/6/2
f 265/3/4 263/6/4 303/6/4 305/3/4
f 274/5/16 273/5/16 313/5/16 314/5/16
f 288/5/32 287/5/32 327/5/32 328/5/32
f 275/5/17 274/5/17 314/5/17 315/5/17
f 289/5/33 288/5/33 328/5/33 329/5/33
f 276/5/18 275/5/18 315/5/18 316/5/18
f 290/5/34 289/5/34 329/5/34 330/5/34
f 277/5/19 276/5/19 316/5/19 317/5/19
f 291/5/35 290/5/35 330/5/35 331/5/35
f 278/5/21 277/5/21 317/5/21 318/5/21
f 292/5/37 291/5/37 331/5/37 332/5/37
f 279/5/22 278/5/22 318/5/22 319/5/22
f 293/5/39 292/5/39 332/5/39 333/5/39
f 280/5/23 279/5/23 319/5/23 320/5/23
f 266/5/8 267/5/8 307/5/8 306/5/8
f 294/5/40 293/5/40 333/5/40 334/5/40
f 281/5/24 280/5/24 320/5/24 321/5/24
f 268/5/9 266/5/9 306/5/9 308/5/9
f 295/5/41 294/5/41 334/5/41 335/5/41
f 282/5/25 281/5/25 321/5/25 322/5/25
f 269/5/10 268/5/10 308/5/10 309/5/10
f 296/5/42 295/5/42 335/5/42 336/5/42
f 283/5/26 282/5/26 322/5/26 323/5/26
f 270/5/12 269/5/12 309/5/12 310/5/12
f 297/5/43 296/5/43 336/5/43 337/5/43
f 284/5/27 283/5/27 323/5/27 324/5/27
f 271/5/13 270/5/13 310/5/13 311/5/13
f 267/5/44 297/5/44 337/5/44 307/5/44
f 285/5/28 284/5/28 324/5/28 325/5/28
f 272/5/14 271/5/14 311/5/14 312/5/14
f 286/5/29 285/5/29 325/5/29 326/5/29
f 273/5/15 272/5/15 312/5/15 313/5/15
f 287/5/31 286/5/31 326/5/31 327/5/31
f 306/5/1 307/5/1 337/5/1 336/5/1 335/5/1 334/5/1 333/5/1 332/5/1 331/5/1 330/5/1 329/5/1 328/5/1 327/5/1 326/5/1 325/5/1 324/5/1 323/5/1 322/5/1 321/5/1 320/5/1 319/5/1 318/5/1 317/5/1 316/5/1 315/5/1 314/5/1 313/5/1 312/5/1 311/5/1 310/5/1 309/5/1 308/5/1
f 90/5/1 111/5/1 341/5/1 340/5/1
f 111/5/1 86/5/1 342/5/1 343/5/1
f 110/4/1 66/4/1 344/4/1 345/4/1
f 91/5/3 102/5/3 340/5/3 90/5/3
o 
v 0.000000 0.000000 0.000000
